{"title":"Tehkikaat DVD 1 - XVID - HIGH QUALITY - DEVSOL.CO.NR","uid":6815766,"size":2172699076,"categoryP":"video","categoryS":"tv_shows","magnet":"?xt=urn:btih:eb70eee8e00f8a8fbd57bd5280cabe9ba8487c75&amp;dn=Tehkikaat+DVD+1+-+XVID+-+HIGH+QUALITY+-+DEVSOL.CO.NR&amp;tr=udp%3A%2F%2Ftracker.openbittorrent.com%3A80&amp;tr=udp%3A%2F%2Fopen.demonii.com%3A1337&amp;tr=udp%3A%2F%2Ftracker.coppersurfer.tk%3A6969&amp;tr=udp%3A%2F%2Fexodus.desync.com%3A6969","seeders":0,"leechers":1,"uploader":"vikysaran","files":2,"time":1321197084,"description":"General\nComplete name                            : Tehkikaat DVD 1 XVID-devsol.co.nr.avi\nFormat                                   : AVI\nFormat/Info                              : Audio Video Interleave\nFormat profile                           : OpenDML\nFile size                                : 2.02 GiB\nDuration                                 : 2h 32mn\nOverall bit rate                         : 1 895 Kbps\n\nVideo\nID                                       : 0\nFormat                                   : MPEG-4 Visual\nFormat profile                           : Advanced Simple@L5\nFormat settings, BVOP                    : 1\nFormat settings, QPel                    : No\nFormat settings, GMC                     : No warppoints\nFormat settings, Matrix                  : Custom\nCodec ID                                 : XVID\nCodec ID/Hint                            : XviD\nDuration                                 : 2h 32mn\nBit rate                                 : 1 688 Kbps\nWidth                                    : 640 pixels\nHeight                                   : 480 pixels\nDisplay aspect ratio                     : 4:3\nFrame rate                               : 29.970 fps\nColor space                              : YUV\nChroma subsampling                       : 4:2:0\nBit depth                                : 8 bits\nScan type                                : Progressive\nCompression mode                         : Lossy\nBits/(Pixel*Frame)                       : 0.183\nStream size                              : 1.80 GiB (89%)\nWriting library                          : XviD 64\n\nAudio\nID                                       : 1\nFormat                                   : AC-3\nFormat/Info                              : Audio Coding 3\nMode extension                           : CM (complete main)\nCodec ID                                 : 2000\nDuration                                 : 2h 32mn\nBit rate mode                            : Constant\nBit rate                                 : 192 Kbps\nChannel(s)                               : 6 channels\nChannel positions                        : Front: L C R, Side: L R, LFE\nSampling rate                            : 44.1 KHz\nBit depth                                : 16 bits\nCompression mode                         : Lossy\nDelay relative to video                  : 34ms\nStream size                              : 210 MiB (10%)\nAlignment                                : Split accross interleaves\nInterleave, duration                     : 33 ms (1.00 video frame)\nInterleave, preload duration             : 500 ms\nLanguage                                 : Hindi\nScreen Shots                             : http://img692.imageshack.us/img692/9984/tehkikaatdvd1xviddjgaurxg.jpg &lt;a href=&quot;\nhttp://bayimg.com/LaKPFAado&quot; rel=&quot;nofollow&quot; target=&quot;_NEW&quot;&gt;\nhttp://bayimg.com/LaKPFAado&lt;/a&gt;","torrent":{"xt":"urn:btih:eb70eee8e00f8a8fbd57bd5280cabe9ba8487c75","amp;dn":"Tehkikaat+DVD+1+-+XVID+-+HIGH+QUALITY+-+DEVSOL.CO.NR","amp;tr":["udp%3A%2F%2Ftracker.openbittorrent.com%3A80","udp%3A%2F%2Fopen.demonii.com%3A1337","udp%3A%2F%2Ftracker.coppersurfer.tk%3A6969","udp%3A%2F%2Fexodus.desync.com%3A6969"],"infoHash":"eb70eee8e00f8a8fbd57bd5280cabe9ba8487c75","infoHashBuffer":{"type":"Buffer","data":[235,112,238,232,224,15,138,143,189,87,189,82,128,202,190,155,168,72,124,117]},"announce":[],"urlList":[]}}